{"title":"Jennifer Hudson - Will You Be There _Michael_Jackson_-_The_Memor","uid":7992074,"size":548309896,"categoryP":"video","categoryS":"other","magnet":"?xt=urn:btih:a2f6d630c273aaa10399a48b52a31711aee3caef&amp;dn=Jennifer+Hudson+-+Will+You+Be+There+_Michael_Jackson_-_The_Memor&amp;tr=udp%3A%2F%2Ftracker.openbittorrent.com%3A80&amp;tr=udp%3A%2F%2Fopen.demonii.com%3A1337&amp;tr=udp%3A%2F%2Ftracker.coppersurfer.tk%3A6969&amp;tr=udp%3A%2F%2Fexodus.desync.com%3A6969","seeders":0,"leechers":1,"uploader":null,"files":1,"time":1357459738,"description":"Format                           : MPEG-TS\nFile size                        : 523 MiB\nDuration                         : 4mn 23s\nOverall bit rate mode            : Variable\nOverall bit rate                 : 16.6 Mbps\n\nVideo\nID                               : 33 (0x21)\nMenu ID                          : 1 (0x1)\nFormat                           : MPEG Video\nFormat version                   : Version 2\nFormat profile                   : Main@High\nFormat settings, BVOP            : Yes\nFormat settings, Matrix          : Custom\nCodec ID                         : 2\nDuration                         : 4mn 23s\nBit rate mode                    : Variable\nBit rate                         : 15.4 Mbps\nMaximum bit rate                 : 17.1 Mbps\nWidth                            : 1 920 pixels\nHeight                           : 1 080 pixels\nDisplay aspect ratio             : 16:9\nFrame rate                       : 29.970 fps\nStandard                         : Component\nColor space                      : YUV\nChroma subsampling               : 4:2:0\nBit depth                        : 8 bits\nScan type                        : Interlaced\nScan order                       : Top Field First\nCompression mode                 : Lossy\nBits/(Pixel*Frame)               : 0.248\nStream size                      : 485 MiB (93%)\nColor primaries                  : BT.709\nTransfer characteristics         : BT.709\nMatrix coefficients              : BT.709\n\nAudio\nID                               : 36 (0x24)\nMenu ID                          : 1 (0x1)\nFormat                           : AC-3\nFormat/Info                      : Audio Coding 3\nMode extension                   : CM (complete main)\nCodec ID                         : 129\nDuration                         : 4mn 23s\nBit rate mode                    : Constant\nBit rate                         : 384 Kbps\nChannel(s)                       : 6 channels\nChannel positions                : Front: L C R, Side: L R, LFE\nSampling rate                    : 48.0 KHz\nBit depth                        : 16 bits\nCompression mode                 : Lossy\nStream size                      : 12.1 MiB (2%)\n\nText #1\nID                               : 33 (0x21)-608-1\nMenu ID                          : 1 (0x1)\nFormat                           : EIA-608\nMuxing mode                      : A/53 / DTVCC Transport\nMuxing mode, more info           : Muxed in Video #1\nDuration                         : 4mn 23s\nBit rate mode                    : Constant\nStream size                      : 0.00 Byte (0%)\n\nText #2\nID                               : 33 (0x21)-1\nMenu ID                          : 1 (0x1)\nFormat                           : EIA-708\nMuxing mode                      : A/53 / DTVCC Transport\nMuxing mode, more info           : Muxed in Video #1\nDuration                         : 4mn 23s\nBit rate mode                    : Constant\nStream size                      : 0.00 Byte (0%)\n","torrent":{"xt":"urn:btih:a2f6d630c273aaa10399a48b52a31711aee3caef","amp;dn":"Jennifer+Hudson+-+Will+You+Be+There+_Michael_Jackson_-_The_Memor","amp;tr":["udp%3A%2F%2Ftracker.openbittorrent.com%3A80","udp%3A%2F%2Fopen.demonii.com%3A1337","udp%3A%2F%2Ftracker.coppersurfer.tk%3A6969","udp%3A%2F%2Fexodus.desync.com%3A6969"],"infoHash":"a2f6d630c273aaa10399a48b52a31711aee3caef","infoHashBuffer":{"type":"Buffer","data":[162,246,214,48,194,115,170,161,3,153,164,139,82,163,23,17,174,227,202,239]},"announce":[],"urlList":[]}}